# xmcd
# 
# Track frame offsets:
#     150
#     22995
#     43401
#     65834
#     82779
#     102379
#     120293
#     139927
#     161121
#     177123
#     197403
#     220778
#     239233
# 
# Disc length: 3514
# 
# Revision: 13
# Processed by: cddbd v1.5.2PL0 Copyright (c) Steve Scherf et al.
# Submitted via: BonkEnc v1.0
# 
DISCID=b60db80d
DTITLE=SPITZ - RECYCLE Greatest Hits of SPITZ
DYEAR=0
DGENRE=Rock
TTITLE0=¿¿¿¿¿¿¿¿¿¿
TTITLE1=¿¿¿¿¿¿¿
TTITLE2=¿¿¿
TTITLE3=¿¿¿¿¿
TTITLE4=¿¿¿¿¿
TTITLE5=¿¿¿¿¿¿
TTITLE6=¿¿¿¿
TTITLE7=¿
TTITLE8=¿¿¿¿¿¿
TTITLE9=¿¿¿¿¿
TTITLE10=¿¿¿¿
TTITLE11=¿¿¿¿
TTITLE12=¿
EXTD=
EXTT0=
EXTT1=
EXTT2=
EXTT3=
EXTT4=
EXTT5=
EXTT6=
EXTT7=
EXTT8=
EXTT9=
EXTT10=
EXTT11=
EXTT12=
PLAYORDER=
